<?xml version="1.0" encoding="UTF-8" standalone="no"?>
<!-- Created with Inkscape (http://www.inkscape.org/) -->

<svg
   version="1.1"
   id="svg2"
   xml:space="preserve"
   width="1721.62"
   height="1656.048"
   viewBox="0 0 1721.62 1656.0479"
   sodipodi:docname="13cd1ae43a8f011de7f01e2353547f7c.ai"
   xmlns:inkscape="http://www.inkscape.org/namespaces/inkscape"
   xmlns:sodipodi="http://sodipodi.sourceforge.net/DTD/sodipodi-0.dtd"
   xmlns="http://www.w3.org/2000/svg"
   xmlns:svg="http://www.w3.org/2000/svg"><defs
     id="defs6"><clipPath
       clipPathUnits="userSpaceOnUse"
       id="clipPath18"><path
         d="M 0,1242.036 H 1291.215 V 0 H 0 Z"
         id="path16" /></clipPath></defs><sodipodi:namedview
     id="namedview4"
     pagecolor="#ffffff"
     bordercolor="#666666"
     borderopacity="1.0"
     inkscape:pageshadow="2"
     inkscape:pageopacity="0.0"
     inkscape:pagecheckerboard="0" /><g
     id="g8"
     inkscape:groupmode="layer"
     inkscape:label="13cd1ae43a8f011de7f01e2353547f7c"
     transform="matrix(1.3333333,0,0,-1.3333333,0,1656.048)"><path
       d="M 0,0 H 1291.215 V 1242.036 H 0 Z"
       style="fill:#17222f;fill-opacity:1;fill-rule:nonzero;stroke:none"
       id="path10" /><g
       id="g12"><g
         id="g14"
         clip-path="url(#clipPath18)"><g
           id="g20"
           transform="translate(436.1563,552.2381)"><path
             d="m 0,0 c -1.696,0 -3.324,-0.018 -4.889,-0.049 -1.564,-0.034 -2.803,-0.146 -3.715,-0.343 v -59.251 c 0.325,-0.066 0.912,-0.115 1.759,-0.147 0.847,-0.033 1.761,-0.065 2.738,-0.098 0.978,-0.033 1.907,-0.048 2.787,-0.048 h 1.906 c 4.498,0 8.31,0.846 11.439,2.541 3.129,1.695 5.687,3.96 7.676,6.796 1.988,2.835 3.438,6.111 4.352,9.827 0.912,3.715 1.368,7.626 1.368,11.733 0,3.192 -0.441,6.502 -1.319,9.924 -0.881,3.422 -2.315,6.551 -4.303,9.386 -1.988,2.835 -4.611,5.166 -7.871,6.991 C 8.668,-0.914 4.693,0 0,0 m -25.422,-64.141 v 2.836 c 2.281,1.041 4.953,1.824 8.018,2.346 v 57.98 c -1.5,0.327 -2.934,0.701 -4.303,1.125 -1.368,0.423 -2.607,0.864 -3.715,1.321 v 2.835 h 9.973 c 1.107,0 2.411,0.032 3.912,0.097 1.498,0.065 3.045,0.148 4.643,0.246 1.597,0.097 3.129,0.195 4.595,0.292 1.467,0.098 2.69,0.147 3.668,0.147 11.08,0 19.604,-2.967 25.568,-8.897 5.963,-5.933 8.946,-14.341 8.946,-25.226 0,-5.15 -0.733,-9.924 -2.199,-14.324 -1.467,-4.401 -3.702,-8.198 -6.699,-11.391 -2.999,-3.194 -6.796,-5.705 -11.39,-7.529 C 11,-64.108 5.572,-65.02 -0.685,-65.02 c -0.977,0 -2.086,0.048 -3.325,0.146 -1.238,0.098 -2.541,0.195 -3.91,0.293 -1.369,0.099 -2.755,0.196 -4.156,0.294 -1.403,0.098 -2.722,0.146 -3.959,0.146 z"
             style="fill:#de9f47;fill-opacity:1;fill-rule:nonzero;stroke:none"
             id="path22" /></g><g
           id="g24"
           transform="translate(500.9795,529.6522)"><path
             d="m 0,0 c -0.718,-0.392 -1.613,-1.19 -2.688,-2.396 -1.077,-1.207 -2.039,-2.982 -2.885,-5.329 v -29.039 c 1.302,-0.131 2.606,-0.376 3.911,-0.733 1.304,-0.359 2.606,-0.897 3.911,-1.613 v -2.445 h -23.074 v 2.445 c 1.172,0.65 2.28,1.139 3.324,1.466 1.041,0.326 2.085,0.619 3.129,0.88 V 1.662 l -6.453,0.781 v 2.543 c 2.084,0.912 4.236,1.645 6.453,2.2 2.215,0.553 4.334,0.994 6.354,1.32 h 2.445 V -1.857 h 0.39 c 0.588,1.302 1.418,2.605 2.495,3.91 1.075,1.302 2.312,2.476 3.714,3.519 1.402,1.043 2.934,1.842 4.596,2.397 1.662,0.552 3.373,0.732 5.133,0.537 0.455,-0.848 0.863,-1.777 1.223,-2.787 0.357,-1.011 0.699,-2.07 1.027,-3.177 V 0 Z"
             style="fill:#de9f47;fill-opacity:1;fill-rule:nonzero;stroke:none"
             id="path26" /></g><g
           id="g28"
           transform="translate(517.6992,493.6707)"><path
             d="m 0,0 c 0,1.955 0.618,3.52 1.857,4.693 1.238,1.173 2.836,1.76 4.791,1.76 2.02,0 3.65,-0.587 4.889,-1.76 C 12.774,3.52 13.395,1.955 13.395,0 c 0,-1.892 -0.621,-3.422 -1.858,-4.596 -1.239,-1.173 -2.869,-1.759 -4.889,-1.759 -1.955,0 -3.553,0.586 -4.791,1.759 C 0.618,-3.422 0,-1.892 0,0"
             style="fill:#de9f47;fill-opacity:1;fill-rule:nonzero;stroke:none"
             id="path30" /></g><g
           id="g32"
           transform="translate(601.8818,488.0975)"><path
             d="m 0,0 h -27.475 v 2.836 c 1.433,0.52 2.884,0.977 4.351,1.368 1.467,0.392 3.047,0.717 4.742,0.978 v 58.175 h -14.959 l -5.181,-13.98 h -2.446 c -0.195,1.303 -0.359,2.786 -0.488,4.448 -0.132,1.662 -0.244,3.357 -0.343,5.084 -0.097,1.727 -0.18,3.423 -0.244,5.085 -0.065,1.662 -0.098,3.144 -0.098,4.448 h 56.808 c 0,-1.304 -0.034,-2.771 -0.1,-4.399 -0.066,-1.631 -0.148,-3.31 -0.248,-5.035 -0.099,-1.729 -0.198,-3.423 -0.296,-5.085 -0.099,-1.662 -0.247,-3.178 -0.444,-4.546 H 11.007 L 5.866,63.357 H -8.995 V 5.182 C -7.301,4.855 -5.72,4.529 -4.253,4.204 -2.786,3.877 -1.368,3.422 0,2.836 Z"
             style="fill:#de9f47;fill-opacity:1;fill-rule:nonzero;stroke:none"
             id="path34" /></g><g
           id="g36"
           transform="translate(625.6406,512.5408)"><path
             d="m 0,0 c 0,-2.934 0.277,-5.704 0.832,-8.311 0.553,-2.607 1.433,-4.873 2.64,-6.794 1.206,-1.924 2.786,-3.44 4.742,-4.547 1.956,-1.11 4.302,-1.662 7.04,-1.662 3.519,0 6.404,1.726 8.652,5.181 2.249,3.454 3.373,8.832 3.373,16.133 0,2.998 -0.277,5.784 -0.83,8.36 -0.554,2.575 -1.418,4.824 -2.592,6.746 -1.172,1.922 -2.673,3.438 -4.498,4.547 -1.825,1.108 -4.007,1.662 -6.55,1.662 -3.846,0 -6.942,-1.727 -9.288,-5.182 C 1.174,12.678 0,7.3 0,0 m -9.386,0 c 0,4.107 0.538,7.74 1.614,10.902 1.075,3.161 2.623,5.833 4.644,8.018 2.02,2.184 4.448,3.846 7.284,4.986 2.836,1.14 5.98,1.711 9.436,1.711 4.041,0 7.528,-0.62 10.461,-1.857 2.933,-1.239 5.329,-2.983 7.187,-5.231 1.858,-2.25 3.227,-4.938 4.106,-8.066 0.881,-3.129 1.32,-6.617 1.32,-10.463 0,-8.213 -2.087,-14.536 -6.258,-18.968 -4.172,-4.433 -9.777,-6.648 -16.816,-6.648 -3.912,0 -7.301,0.602 -10.169,1.808 -2.869,1.205 -5.248,2.933 -7.138,5.182 -1.89,2.249 -3.308,4.953 -4.254,8.115 C -8.914,-7.35 -9.386,-3.847 -9.386,0"
             style="fill:#de9f47;fill-opacity:1;fill-rule:nonzero;stroke:none"
             id="path38" /></g><g
           id="g40"
           transform="translate(708.0645,494.9422)"><path
             d="m 0,0 c -1.173,-2.283 -3.08,-4.189 -5.719,-5.721 -2.64,-1.53 -5.72,-2.297 -9.24,-2.297 -3.848,0 -7.187,0.603 -10.021,1.809 -2.836,1.205 -5.2,2.933 -7.09,5.182 -1.891,2.249 -3.309,4.953 -4.253,8.115 -0.946,3.161 -1.417,6.664 -1.417,10.511 0,8.277 2.019,14.617 6.061,19.017 4.041,4.401 9.548,6.6 16.525,6.6 3.192,0 6.045,-0.278 8.554,-0.831 2.509,-0.554 4.645,-1.288 6.405,-2.2 -0.196,-2.151 -0.555,-4.563 -1.076,-7.235 -0.522,-2.674 -1.172,-4.889 -1.956,-6.649 h -2.639 l -4.107,11.635 c -0.457,0.326 -0.977,0.57 -1.564,0.733 -0.586,0.162 -1.565,0.245 -2.934,0.245 -4.433,0 -7.855,-1.613 -10.265,-4.84 -2.412,-3.226 -3.618,-8.686 -3.618,-16.378 0,-2.477 0.342,-4.888 1.026,-7.234 0.685,-2.347 1.726,-4.449 3.129,-6.307 1.401,-1.858 3.161,-3.342 5.28,-4.449 2.117,-1.109 4.579,-1.662 7.382,-1.662 2.281,0 4.268,0.325 5.965,0.977 1.693,0.652 3.129,1.434 4.301,2.347 z"
             style="fill:#de9f47;fill-opacity:1;fill-rule:nonzero;stroke:none"
             id="path42" /></g><g
           id="g44"
           transform="translate(767.6084,488.0975)"><path
             d="m 0,0 h -21.119 v 2.444 c 1.564,0.847 3.52,1.629 5.866,2.347 V 27.67 c 0,5.084 -0.718,9.076 -2.15,11.978 -1.436,2.899 -4.043,4.35 -7.823,4.35 -1.695,0 -3.226,-0.31 -4.595,-0.928 -1.369,-0.621 -2.608,-1.418 -3.715,-2.396 -1.11,-0.977 -2.054,-2.102 -2.836,-3.373 -0.782,-1.271 -1.369,-2.591 -1.76,-3.959 V 4.791 c 1.042,-0.262 2.036,-0.555 2.983,-0.88 0.943,-0.327 1.873,-0.816 2.786,-1.467 V 0 h -21.022 v 2.444 c 2.02,1.042 4.171,1.825 6.453,2.347 v 61.892 l -7.43,0.782 v 2.542 c 1.889,0.782 4.09,1.467 6.599,2.054 2.508,0.585 4.905,1.075 7.187,1.466 h 2.444 V 39.012 h 0.098 c 1.369,3.063 3.34,5.672 5.916,7.822 2.574,2.151 5.685,3.227 9.337,3.227 2.606,0 4.937,-0.311 6.991,-0.929 2.053,-0.62 3.764,-1.711 5.133,-3.276 1.369,-1.564 2.41,-3.667 3.129,-6.306 0.716,-2.64 1.075,-5.982 1.075,-10.023 V 4.791 C -5.345,4.529 -4.237,4.236 -3.128,3.911 -2.021,3.584 -0.978,3.095 0,2.444 Z"
             style="fill:#de9f47;fill-opacity:1;fill-rule:nonzero;stroke:none"
             id="path46" /></g><g
           id="g48"
           transform="translate(777.874,553.6072)"><path
             d="m 0,0 c 0,1.76 0.569,3.16 1.712,4.203 1.139,1.043 2.654,1.565 4.546,1.565 1.889,0 3.388,-0.522 4.497,-1.565 C 11.862,3.16 12.417,1.76 12.417,0 c 0,-1.761 -0.555,-3.146 -1.662,-4.156 -1.109,-1.012 -2.608,-1.516 -4.497,-1.516 -1.892,0 -3.407,0.504 -4.546,1.516 C 0.569,-3.146 0,-1.761 0,0 M 17.11,-65.51 H -4.595 v 2.445 c 0.977,0.52 1.988,0.961 3.031,1.32 1.042,0.357 2.183,0.699 3.422,1.026 v 38.426 l -6.453,0.781 v 2.543 c 1.889,0.782 3.943,1.467 6.159,2.053 2.216,0.587 4.433,1.076 6.65,1.467 h 2.443 v -45.27 c 1.304,-0.327 2.477,-0.669 3.521,-1.026 1.042,-0.359 2.019,-0.8 2.932,-1.32 z"
             style="fill:#de9f47;fill-opacity:1;fill-rule:nonzero;stroke:none"
             id="path50" /></g><g
           id="g52"
           transform="translate(824.4141,533.8563)"><path
             d="m 0,0 c -3.715,0 -6.551,-1.256 -8.506,-3.765 -1.955,-2.509 -3.129,-6.926 -3.519,-13.248 H 9.484 c 0.065,0.586 0.114,1.157 0.147,1.711 0.033,0.553 0.049,1.091 0.049,1.614 0,4.169 -0.782,7.495 -2.346,9.972 C 5.77,-1.239 3.324,0 0,0 m 17.893,-38.914 c -0.522,-1.109 -1.336,-2.151 -2.444,-3.129 -1.109,-0.978 -2.381,-1.826 -3.813,-2.543 -1.435,-0.718 -2.999,-1.286 -4.694,-1.711 -1.696,-0.423 -3.421,-0.635 -5.182,-0.635 -3.846,0 -7.235,0.603 -10.168,1.809 -2.934,1.205 -5.377,2.933 -7.333,5.182 -1.956,2.249 -3.439,4.937 -4.448,8.066 -1.012,3.129 -1.516,6.649 -1.516,10.56 0,8.343 1.922,14.699 5.767,19.066 3.846,4.366 9.29,6.551 16.33,6.551 2.28,0 4.53,-0.311 6.747,-0.929 2.215,-0.62 4.187,-1.647 5.914,-3.08 1.726,-1.435 3.129,-3.341 4.205,-5.72 1.075,-2.38 1.613,-5.328 1.613,-8.848 0,-1.109 -0.049,-2.234 -0.146,-3.373 -0.098,-1.142 -0.279,-2.364 -0.538,-3.667 h -30.506 c 0,-2.738 0.342,-5.297 1.026,-7.675 0.686,-2.38 1.711,-4.449 3.08,-6.209 1.369,-1.76 3.096,-3.146 5.182,-4.155 2.086,-1.012 4.53,-1.516 7.334,-1.516 2.281,0 4.595,0.325 6.941,0.977 2.348,0.652 4.108,1.499 5.28,2.542 z"
             style="fill:#de9f47;fill-opacity:1;fill-rule:nonzero;stroke:none"
             id="path54" /></g><g
           id="g56"
           transform="translate(871.1504,486.9247)"><path
             d="m 0,0 -19.066,45.171 c -1.892,0.651 -3.619,1.433 -5.182,2.348 v 2.541 h 20.532 v -2.444 c -0.848,-0.457 -1.712,-0.896 -2.591,-1.32 -0.88,-0.425 -1.875,-0.799 -2.982,-1.125 L 2.01,15.741 3.958,9.68 h 0.195 l 1.46,6.159 10.422,29.332 c -1.044,0.26 -2.005,0.588 -2.885,0.978 -0.88,0.391 -1.711,0.846 -2.494,1.37 v 2.541 h 16.623 v -2.541 c -0.652,-0.458 -1.452,-0.881 -2.396,-1.272 -0.946,-0.391 -2.004,-0.75 -3.178,-1.076 L 4.399,1.173 Z"
             style="fill:#de9f47;fill-opacity:1;fill-rule:nonzero;stroke:none"
             id="path58" /></g><g
           id="g60"
           transform="translate(466.4912,426.1873)"><path
             d="m 0,0 c 1.687,0 3.247,0.24 4.68,0.72 1.432,0.479 2.666,1.175 3.7,2.087 1.034,0.911 1.839,2.021 2.412,3.333 0.572,1.31 0.859,2.798 0.859,4.461 0,1.662 -0.287,3.149 -0.859,4.461 -0.573,1.31 -1.378,2.421 -2.412,3.333 C 7.346,19.306 6.112,20.001 4.68,20.48 3.247,20.961 1.687,21.201 0,21.201 H -3.056 V 0 Z m -9.74,26.501 h 9.597 c 2.801,0 5.339,-0.398 7.616,-1.193 2.275,-0.796 4.217,-1.903 5.825,-3.319 1.607,-1.417 2.848,-3.096 3.724,-5.038 0.875,-1.942 1.314,-4.058 1.314,-6.35 0,-2.292 -0.439,-4.41 -1.314,-6.351 C 16.146,2.308 14.905,0.629 13.298,-0.787 11.69,-2.204 9.748,-3.311 7.473,-4.106 5.196,-4.902 2.658,-5.3 -0.143,-5.3 H -9.74 Z"
             style="fill:#de9f47;fill-opacity:1;fill-rule:nonzero;stroke:none"
             id="path62" /></g><g
           id="g64"
           transform="translate(499.2471,452.6883)"><path
             d="M 0,0 H 19.1 V -5.3 H 6.685 v -7.687 h 11.841 v -5.301 H 6.685 v -8.213 h 12.557 v -5.3 H 0 Z"
             style="fill:#de9f47;fill-opacity:1;fill-rule:nonzero;stroke:none"
             id="path66" /></g><g
           id="g68"
           transform="translate(555.1133,420.8875)"><path
             d="M 0,0 -14.85,20.818 V 0 h -6.398 v 31.801 h 6.398 L 0,10.982 V 31.801 H 6.398 V 0 Z"
             style="fill:#de9f47;fill-opacity:1;fill-rule:nonzero;stroke:none"
             id="path70" /></g><g
           id="g72"
           transform="translate(599.5674,452.6883)"><path
             d="m 0,0 v -5.3 h -8.786 v -26.501 h -6.685 V -5.3 h -8.786 V 0 Z"
             style="fill:#de9f47;fill-opacity:1;fill-rule:nonzero;stroke:none"
             id="path74" /></g><g
           id="g76"
           transform="translate(623.7744,447.3407)"><path
             d="M 0,0 -4.774,-14.468 H 4.775 Z M 15.71,-26.453 H 8.786 l -2.244,6.684 H -6.541 l -2.244,-6.684 h -6.924 l 12.08,31.801 h 7.258 z"
             style="fill:#de9f47;fill-opacity:1;fill-rule:nonzero;stroke:none"
             id="path78" /></g><g
           id="g80"
           transform="translate(659.9687,452.6883)"><path
             d="m 0,0 v -26.501 h 11.842 v -5.3 H -6.685 V 0 Z"
             style="fill:#de9f47;fill-opacity:1;fill-rule:nonzero;stroke:none"
             id="path82" /></g><g
           id="g84"
           transform="translate(720.9912,453.2616)"><path
             d="M 0,0 C 0.795,0 1.606,-0.04 2.435,-0.119 3.263,-0.198 4.066,-0.309 4.847,-0.45 5.626,-0.592 6.374,-0.766 7.091,-0.971 7.807,-1.176 8.451,-1.42 9.024,-1.703 L 8.069,-6.59 C 7.05,-6.208 5.921,-5.897 4.68,-5.658 3.438,-5.42 2.212,-5.301 1.003,-5.301 c -3.629,0 -6.407,-0.942 -8.333,-2.829 -1.926,-1.886 -2.889,-4.667 -2.889,-8.344 0,-3.676 0.963,-6.458 2.889,-8.343 1.926,-1.887 4.704,-2.829 8.333,-2.829 1.209,0 2.435,0.119 3.677,0.357 1.241,0.239 2.37,0.55 3.389,0.932 l 0.955,-4.887 c -0.573,-0.283 -1.217,-0.527 -1.933,-0.734 -0.717,-0.205 -1.465,-0.378 -2.244,-0.52 -0.781,-0.141 -1.584,-0.251 -2.412,-0.331 -0.829,-0.078 -1.64,-0.118 -2.435,-0.118 -2.738,0 -5.157,0.414 -7.258,1.242 -2.101,0.827 -3.868,1.973 -5.301,3.437 -1.431,1.464 -2.514,3.2 -3.246,5.206 -0.733,2.004 -1.098,4.201 -1.098,6.588 0,2.388 0.365,4.584 1.098,6.59 0.732,2.005 1.815,3.739 3.246,5.204 1.433,1.464 3.2,2.611 5.301,3.439 C -5.157,-0.414 -2.738,0 0,0"
             style="fill:#de9f47;fill-opacity:1;fill-rule:nonzero;stroke:none"
             id="path86" /></g><g
           id="g88"
           transform="translate(751.502,452.6883)"><path
             d="m 0,0 v -26.501 h 11.842 v -5.3 H -6.685 V 0 Z"
             style="fill:#de9f47;fill-opacity:1;fill-rule:nonzero;stroke:none"
             id="path90" /></g><g
           id="g92"
           transform="translate(796.0996,452.6883)"><path
             d="m 0,0 h 6.685 v -20.341 c 0,-1.814 -0.303,-3.462 -0.908,-4.942 -0.604,-1.481 -1.465,-2.745 -2.578,-3.796 -1.115,-1.051 -2.491,-1.862 -4.131,-2.436 -1.639,-0.572 -3.477,-0.859 -5.514,-0.859 -2.07,0 -3.915,0.287 -5.539,0.859 -1.623,0.574 -2.993,1.385 -4.107,2.436 -1.114,1.051 -1.973,2.315 -2.578,3.796 -0.605,1.48 -0.907,3.128 -0.907,4.942 V 0 h 6.684 v -20.664 c 0,-2.009 0.541,-3.58 1.624,-4.712 1.081,-1.132 2.69,-1.697 4.823,-1.697 2.132,0 3.74,0.565 4.822,1.697 1.082,1.132 1.624,2.703 1.624,4.712 z"
             style="fill:#de9f47;fill-opacity:1;fill-rule:nonzero;stroke:none"
             id="path94" /></g><g
           id="g96"
           transform="translate(835.1094,430.2938)"><path
             d="M 0,0 C 0,1.433 -0.602,2.515 -1.806,3.247 -3.01,3.979 -4.562,4.346 -6.462,4.346 h -3.184 v -8.691 h 3.517 c 2.091,0 3.634,0.398 4.633,1.194 C -0.499,-2.355 0,-1.306 0,0 m -6.797,9.407 c 1.647,0 2.992,0.365 4.036,1.098 1.045,0.732 1.568,1.766 1.568,3.103 0,1.274 -0.444,2.213 -1.33,2.818 -0.886,0.604 -2.09,0.907 -3.609,0.907 H -9.646 V 9.407 Z M 6.59,-0.478 c 0,-1.4 -0.319,-2.649 -0.955,-3.748 C 4.997,-5.323 4.106,-6.255 2.961,-7.019 1.814,-7.783 0.43,-8.372 -1.193,-8.785 -2.817,-9.199 -4.616,-9.406 -6.589,-9.406 h -9.598 V 22.395 H -5.3 c 1.623,0 3.095,-0.184 4.417,-0.549 C 0.437,21.479 1.56,20.97 2.483,20.317 3.406,19.665 4.122,18.877 4.632,17.954 5.141,17.03 5.396,16.012 5.396,14.898 5.396,12.893 4.814,11.27 3.653,10.027 2.49,8.786 0.907,7.847 -1.099,7.21 1.193,6.859 3.048,6.041 4.465,4.751 5.881,3.462 6.59,1.72 6.59,-0.478"
             style="fill:#de9f47;fill-opacity:1;fill-rule:nonzero;stroke:none"
             id="path98" /></g><g
           id="g100"
           transform="translate(552.48,694.9979)"><path
             d="m 0,0 100.925,-100.442 v 31.884 l -85.321,84.84 z"
             style="fill:#de9f47;fill-opacity:1;fill-rule:nonzero;stroke:none"
             id="path102" /></g><g
           id="g104"
           transform="translate(596.1655,739.6785)"><path
             d="M 0,0 H 26.943 L 13.695,-13.694 Z"
             style="fill:#de9f47;fill-opacity:1;fill-rule:nonzero;stroke:none"
             id="path106" /></g><g
           id="g108"
           transform="translate(568.0786,711.2801)"><path
             d="M 0,0 H 26.943 L 13.695,-13.694 Z"
             style="fill:#de9f47;fill-opacity:1;fill-rule:nonzero;stroke:none"
             id="path110" /></g><g
           id="g112"
           transform="translate(580.7627,724.2762)"><path
             d="M 0,0 15.403,15.402 72.611,-41.806 V -71.358 Z"
             style="fill:#de9f47;fill-opacity:1;fill-rule:nonzero;stroke:none"
             id="path114" /></g><g
           id="g116"
           transform="translate(753.8481,694.9979)"><path
             d="m 0,0 -100.443,-100.442 v 31.884 l 84.84,84.84 z"
             style="fill:#de9f47;fill-opacity:1;fill-rule:nonzero;stroke:none"
             id="path118" /></g><g
           id="g120"
           transform="translate(710.5815,739.6785)"><path
             d="m 0,0 h -26.943 l 13.249,-13.694 z"
             style="fill:#de9f47;fill-opacity:1;fill-rule:nonzero;stroke:none"
             id="path122" /></g><g
           id="g124"
           transform="translate(738.2446,711.2801)"><path
             d="m 0,0 h -26.943 l 13.249,-13.694 z"
             style="fill:#de9f47;fill-opacity:1;fill-rule:nonzero;stroke:none"
             id="path126" /></g><g
           id="g128"
           transform="translate(725.9844,724.2762)"><path
             d="M 0,0 -15.403,15.402 -72.611,-41.806 V -71.358 Z"
             style="fill:#de9f47;fill-opacity:1;fill-rule:nonzero;stroke:none"
             id="path130" /></g><g
           id="g132"
           transform="translate(624.8926,785.9998)"><path
             d="M 0,0 C 9.48,-4.814 18.96,-9.63 28.439,-14.445 L 56.427,0 71.815,-17.605 41.729,-74.635 28.508,-60.438 14.897,-74.483 -13.994,-17.605 Z"
             style="fill:#de9f47;fill-opacity:1;fill-rule:nonzero;stroke:none"
             id="path134" /></g></g></g></g></svg>
